<svg width="208" height="33" viewBox="0 0 208 33" fill="none" xmlns="http://www.w3.org/2000/svg">
<path d="M50.738 26.26C49.282 26.26 47.9647 26.026 46.786 25.558C45.6073 25.09 44.5933 24.4313 43.744 23.582C42.8947 22.7327 42.2447 21.736 41.794 20.592C41.3433 19.4307 41.118 18.174 41.118 16.822C41.118 15.47 41.352 14.2307 41.82 13.104C42.3053 11.96 42.99 10.9633 43.874 10.114C44.758 9.26467 45.798 8.606 46.994 8.138C48.2073 7.67 49.5247 7.436 50.946 7.436C51.9513 7.436 52.896 7.566 53.78 7.826C54.6813 8.086 55.496 8.44133 56.224 8.892C56.952 9.34267 57.5673 9.86267 58.07 10.452L55.392 13.286C54.9587 12.87 54.508 12.5233 54.04 12.246C53.5893 11.9687 53.104 11.752 52.584 11.596C52.064 11.4227 51.5093 11.336 50.92 11.336C50.1573 11.336 49.4553 11.4747 48.814 11.752C48.19 12.0293 47.6353 12.4193 47.15 12.922C46.682 13.4073 46.318 13.988 46.058 14.664C45.798 15.3227 45.668 16.042 45.668 16.822C45.668 17.602 45.8067 18.33 46.084 19.006C46.3613 19.682 46.7427 20.2713 47.228 20.774C47.7133 21.2593 48.2853 21.6493 48.944 21.944C49.62 22.2213 50.3393 22.36 51.102 22.36C51.6393 22.36 52.142 22.2733 52.61 22.1C53.0953 21.9267 53.5113 21.6927 53.858 21.398C54.2047 21.1033 54.482 20.7567 54.69 20.358C54.898 19.942 55.002 19.5 55.002 19.032L55.002 18.356L55.574 19.24L50.556 19.24L50.556 15.782L59.11 15.782C59.1447 15.9727 59.1707 16.2327 59.188 16.562C59.2053 16.8913 59.214 17.212 59.214 17.524C59.2313 17.836 59.24 18.07 59.24 18.226C59.24 19.4047 59.0233 20.488 58.59 21.476C58.174 22.4467 57.5847 23.2873 56.822 23.998C56.0593 24.7087 55.158 25.2633 54.118 25.662C53.078 26.0607 51.9513 26.26 50.738 26.26ZM67.2799 26.234C66.1186 26.234 65.0786 25.9307 64.1599 25.324C63.2586 24.7 62.5392 23.8507 62.0019 22.776C61.4646 21.684 61.1959 20.4533 61.1959 19.084C61.1959 17.68 61.4646 16.4407 62.0019 15.366C62.5392 14.2913 63.2759 13.4507 64.2119 12.844C65.1479 12.22 66.2139 11.908 67.4099 11.908C68.0686 11.908 68.6666 12.0033 69.2039 12.194C69.7586 12.3847 70.2439 12.6533 70.6599 13C71.0759 13.3293 71.4312 13.7193 71.7259 14.17C72.0206 14.6033 72.2372 15.0713 72.3759 15.574L71.5179 15.47L71.5179 12.194L75.6519 12.194L75.6519 26L71.4399 26L71.4399 22.672L72.3759 22.646C72.2372 23.1313 72.0119 23.5907 71.6999 24.024C71.3879 24.4573 71.0066 24.8387 70.5559 25.168C70.1052 25.4973 69.6026 25.7573 69.0479 25.948C68.4932 26.1387 67.9039 26.234 67.2799 26.234ZM68.4239 22.724C69.0652 22.724 69.6199 22.5767 70.0879 22.282C70.5559 21.9873 70.9199 21.5713 71.1799 21.034C71.4399 20.4793 71.5699 19.8293 71.5699 19.084C71.5699 18.3387 71.4399 17.6973 71.1799 17.16C70.9199 16.6053 70.5559 16.1807 70.0879 15.886C69.6199 15.574 69.0652 15.418 68.4239 15.418C67.7999 15.418 67.2539 15.574 66.7859 15.886C66.3352 16.1807 65.9799 16.6053 65.7199 17.16C65.4599 17.6973 65.3299 18.3387 65.3299 19.084C65.3299 19.8293 65.4599 20.4793 65.7199 21.034C65.9799 21.5713 66.3352 21.9873 66.7859 22.282C67.2539 22.5767 67.7999 22.724 68.4239 22.724ZM79.2966 26L79.2966 12.194L83.2486 12.194L83.3786 14.69L82.8326 14.716C83.0406 14.2653 83.3006 13.8667 83.6126 13.52C83.9419 13.1733 84.3059 12.8873 84.7046 12.662C85.1206 12.4193 85.5452 12.2373 85.9786 12.116C86.4292 11.9947 86.8799 11.934 87.3306 11.934C88.0066 11.934 88.6219 12.038 89.1766 12.246C89.7312 12.454 90.2166 12.792 90.6326 13.26C91.0486 13.7107 91.3779 14.326 91.6206 15.106L90.9706 15.054L91.1786 14.638C91.4039 14.222 91.6899 13.8493 92.0366 13.52C92.4006 13.1733 92.7992 12.8873 93.2326 12.662C93.6659 12.4193 94.1166 12.2373 94.5846 12.116C95.0526 11.9947 95.5032 11.934 95.9366 11.934C97.0286 11.934 97.9386 12.1507 98.6666 12.584C99.3946 13 99.9406 13.6327 100.305 14.482C100.686 15.3313 100.877 16.3627 100.877 17.576L100.877 26L96.6906 26L96.6906 17.914C96.6906 17.3593 96.6126 16.9 96.4566 16.536C96.3006 16.172 96.0666 15.9033 95.7546 15.73C95.4599 15.5393 95.0872 15.444 94.6366 15.444C94.2726 15.444 93.9346 15.5047 93.6226 15.626C93.3279 15.7473 93.0679 15.912 92.8426 16.12C92.6346 16.328 92.4699 16.5707 92.3486 16.848C92.2272 17.1253 92.1666 17.4373 92.1666 17.784L92.1666 26L87.9806 26L87.9806 17.888C87.9806 17.368 87.9026 16.926 87.7466 16.562C87.5906 16.198 87.3566 15.9207 87.0446 15.73C86.7326 15.5393 86.3686 15.444 85.9526 15.444C85.5886 15.444 85.2506 15.5047 84.9386 15.626C84.6439 15.7473 84.3839 15.912 84.1586 16.12C83.9506 16.328 83.7859 16.5707 83.6646 16.848C83.5432 17.1253 83.4826 17.4287 83.4826 17.758L83.4826 26L79.2966 26ZM104.566 26L104.566 12.194L108.726 12.194L108.726 26L104.566 26ZM106.646 9.464C105.866 9.464 105.251 9.282 104.8 8.918C104.367 8.53667 104.15 7.99933 104.15 7.306C104.15 6.682 104.376 6.17066 104.826 5.772C105.277 5.37333 105.884 5.174 106.646 5.174C107.426 5.174 108.033 5.36466 108.466 5.746C108.9 6.11 109.116 6.63 109.116 7.306C109.116 7.94733 108.891 8.46733 108.44 8.866C108.007 9.26467 107.409 9.464 106.646 9.464ZM112.635 26L112.635 12.194L116.587 12.194L116.717 15.002L115.885 15.314C116.076 14.69 116.414 14.1267 116.899 13.624C117.402 13.104 118 12.688 118.693 12.376C119.386 12.064 120.114 11.908 120.877 11.908C121.917 11.908 122.792 12.1247 123.503 12.558C124.214 12.974 124.751 13.6067 125.115 14.456C125.479 15.288 125.661 16.3107 125.661 17.524L125.661 26L121.475 26L121.475 17.862C121.475 17.3073 121.397 16.848 121.241 16.484C121.085 16.12 120.842 15.8513 120.513 15.678C120.201 15.4873 119.811 15.4007 119.343 15.418C118.979 15.418 118.641 15.4787 118.329 15.6C118.017 15.704 117.748 15.8687 117.523 16.094C117.298 16.302 117.116 16.5447 116.977 16.822C116.856 17.0993 116.795 17.4027 116.795 17.732L116.795 26L114.741 26C114.256 26 113.84 26 113.493 26C113.146 26 112.86 26 112.635 26ZM135.457 31.98C134.33 31.98 133.204 31.8153 132.077 31.486C130.968 31.1567 130.066 30.732 129.373 30.212L130.829 27.3C131.193 27.5427 131.592 27.7507 132.025 27.924C132.476 28.1147 132.944 28.262 133.429 28.366C133.914 28.47 134.408 28.522 134.911 28.522C135.795 28.522 136.514 28.392 137.069 28.132C137.624 27.872 138.04 27.4733 138.317 26.936C138.594 26.416 138.733 25.7573 138.733 24.96L138.733 22.646L139.539 22.776C139.418 23.348 139.114 23.868 138.629 24.336C138.161 24.804 137.58 25.1853 136.887 25.48C136.194 25.7573 135.457 25.896 134.677 25.896C133.429 25.896 132.311 25.61 131.323 25.038C130.352 24.4487 129.581 23.6427 129.009 22.62C128.454 21.58 128.177 20.384 128.177 19.032C128.177 17.6453 128.454 16.4233 129.009 15.366C129.564 14.2913 130.326 13.4507 131.297 12.844C132.268 12.22 133.36 11.908 134.573 11.908C135.093 11.908 135.587 11.9687 136.055 12.09C136.54 12.2113 136.982 12.376 137.381 12.584C137.797 12.7747 138.161 13.0087 138.473 13.286C138.802 13.546 139.062 13.832 139.253 14.144C139.461 14.456 139.6 14.7767 139.669 15.106L138.811 15.314L138.967 12.194L142.919 12.194L142.919 24.882C142.919 26.0087 142.746 27.0053 142.399 27.872C142.07 28.756 141.576 29.5013 140.917 30.108C140.276 30.732 139.496 31.2 138.577 31.512C137.658 31.824 136.618 31.98 135.457 31.98ZM135.561 22.672C136.237 22.672 136.818 22.5247 137.303 22.23C137.806 21.918 138.187 21.4933 138.447 20.956C138.724 20.4187 138.863 19.786 138.863 19.058C138.863 18.33 138.724 17.6973 138.447 17.16C138.187 16.6053 137.806 16.1807 137.303 15.886C136.818 15.574 136.237 15.418 135.561 15.418C134.902 15.418 134.33 15.574 133.845 15.886C133.36 16.1807 132.978 16.6053 132.701 17.16C132.441 17.6973 132.311 18.33 132.311 19.058C132.311 19.786 132.441 20.4187 132.701 20.956C132.978 21.4933 133.36 21.918 133.845 22.23C134.33 22.5247 134.902 22.672 135.561 22.672ZM166.586 26L166.586 7.8L171.006 7.8L171.006 26L166.586 26ZM155.302 26L155.302 7.8L159.722 7.8L159.722 26L155.302 26ZM157.018 18.902L157.044 14.95L168.926 14.95L168.926 18.902L157.018 18.902ZM179.827 26.286C178.805 26.286 177.929 26.0693 177.201 25.636C176.491 25.1853 175.936 24.544 175.537 23.712C175.156 22.88 174.965 21.8833 174.965 20.722L174.965 12.194L179.151 12.194L179.151 20.15C179.151 20.7047 179.238 21.1813 179.411 21.58C179.585 21.9787 179.845 22.2907 180.191 22.516C180.538 22.724 180.954 22.828 181.439 22.828C181.803 22.828 182.133 22.7673 182.427 22.646C182.739 22.5247 182.999 22.36 183.207 22.152C183.433 21.9267 183.606 21.6753 183.727 21.398C183.849 21.1033 183.909 20.7827 183.909 20.436L183.909 12.194L188.095 12.194L188.095 26L184.169 26L183.987 23.166L184.767 22.854C184.559 23.5127 184.213 24.102 183.727 24.622C183.242 25.1247 182.661 25.532 181.985 25.844C181.309 26.1387 180.59 26.286 179.827 26.286ZM200.097 26.286C199.473 26.286 198.875 26.1993 198.303 26.026C197.731 25.8527 197.211 25.6187 196.743 25.324C196.292 25.0293 195.911 24.6913 195.599 24.31C195.304 23.9113 195.105 23.504 195.001 23.088L195.911 22.776L195.677 25.974L191.803 25.974L191.803 6.76L195.989 6.76L195.989 15.496L195.131 15.184C195.235 14.7333 195.434 14.3173 195.729 13.936C196.024 13.5373 196.396 13.1907 196.847 12.896C197.298 12.584 197.792 12.3413 198.329 12.168C198.866 11.9947 199.421 11.908 199.993 11.908C201.189 11.908 202.246 12.22 203.165 12.844C204.101 13.4507 204.838 14.3 205.375 15.392C205.912 16.4667 206.181 17.6973 206.181 19.084C206.181 20.488 205.912 21.736 205.375 22.828C204.855 23.9027 204.136 24.752 203.217 25.376C202.298 25.9827 201.258 26.286 200.097 26.286ZM199.005 22.776C199.629 22.776 200.175 22.62 200.643 22.308C201.111 21.996 201.466 21.5713 201.709 21.034C201.969 20.4793 202.099 19.8293 202.099 19.084C202.099 18.356 201.969 17.7147 201.709 17.16C201.466 16.6053 201.111 16.1807 200.643 15.886C200.175 15.5913 199.629 15.444 199.005 15.444C198.364 15.444 197.809 15.5913 197.341 15.886C196.873 16.1807 196.509 16.6053 196.249 17.16C195.989 17.7147 195.859 18.356 195.859 19.084C195.859 19.8293 195.989 20.4793 196.249 21.034C196.509 21.5713 196.873 21.996 197.341 22.308C197.809 22.62 198.364 22.776 199.005 22.776Z" fill="#605F62"/>
<path d="M16 32C24.8366 32 32 24.8366 32 16C32 7.16344 24.8366 0 16 0C7.16344 0 0 7.16344 0 16C0 24.8366 7.16344 32 16 32Z" fill="#605F62"/>
<path d="M12.8693 12.6846H23.9543V15.1726H12.8693V12.6846ZM23.9543 16.8286H24.0003V23.3716C24.0003 23.3716 15.3533 29.6366 8.63733 22.8196C8.63733 22.8196 4.95733 19.0876 6.29133 13.6516C6.29133 13.6516 7.34933 6.88057 15.3993 6.05157C15.3993 6.05157 20.3663 5.35957 23.5863 9.04557L21.6543 10.9336C21.6543 10.9336 17.5603 6.69557 12.0873 10.0136C12.0873 10.0136 7.62533 12.5006 9.46533 18.7656C9.46533 18.7656 11.4893 24.2016 17.8363 23.0956C17.8363 23.0956 19.9983 22.6036 21.1023 21.6516V19.3166H12.8703V16.8286H23.9543Z" fill="white"/>
</svg>
