<svg width="66" height="66" viewBox="0 0 66 66" fill="none" xmlns="http://www.w3.org/2000/svg">
<path d="M36.2549 36.5127C34.5576 35.3525 32.7314 34.4824 30.7764 33.9023C28.8213 33.3223 26.8125 33.0215 24.75 33C22.8594 33 21.0332 33.2471 19.2715 33.7412C17.5098 34.2354 15.8662 34.9229 14.3408 35.8037C12.8154 36.6846 11.4297 37.7588 10.1836 39.0264C8.9375 40.2939 7.86328 41.6904 6.96094 43.2158C6.05859 44.7412 5.36035 46.3848 4.86621 48.1465C4.37207 49.9082 4.125 51.7344 4.125 53.625H0C0 51.1113 0.375977 48.6514 1.12793 46.2451C1.87988 43.8389 2.96484 41.6152 4.38281 39.5742C5.80078 37.5332 7.4873 35.7178 9.44238 34.1279C11.3975 32.5381 13.5781 31.3242 15.9844 30.4863C14.7812 29.7129 13.707 28.8213 12.7617 27.8115C11.8164 26.8018 11 25.6953 10.3125 24.4922C9.625 23.2891 9.12012 22.0215 8.79785 20.6895C8.47559 19.3574 8.29297 17.9609 8.25 16.5C8.25 14.2227 8.67969 12.085 9.53906 10.0869C10.3984 8.08887 11.5693 6.33789 13.0518 4.83398C14.5342 3.33008 16.2852 2.14844 18.3047 1.28906C20.3242 0.429688 22.4727 0 24.75 0C27.0273 0 29.165 0.429688 31.1631 1.28906C33.1611 2.14844 34.9121 3.31934 36.416 4.80176C37.9199 6.28418 39.1016 8.03516 39.9609 10.0547C40.8203 12.0742 41.25 14.2227 41.25 16.5C41.25 17.9395 41.0781 19.3252 40.7344 20.6572C40.3906 21.9893 39.875 23.2676 39.1875 24.4922C38.5 25.7168 37.6943 26.8232 36.7705 27.8115C35.8467 28.7998 34.7617 29.6914 33.5156 30.4863C35.2559 31.1094 36.9316 31.9688 38.543 33.0645L36.2549 36.5127ZM12.375 16.5C12.375 18.2188 12.6973 19.8193 13.3418 21.3018C13.9863 22.7842 14.8672 24.0947 15.9844 25.2334C17.1016 26.3721 18.4121 27.2637 19.916 27.9082C21.4199 28.5527 23.0312 28.875 24.75 28.875C26.4473 28.875 28.0479 28.5527 29.5518 27.9082C31.0557 27.2637 32.3662 26.3828 33.4834 25.2656C34.6006 24.1484 35.4922 22.8379 36.1582 21.334C36.8242 19.8301 37.1465 18.2188 37.125 16.5C37.125 14.8027 36.8027 13.2021 36.1582 11.6982C35.5137 10.1943 34.6328 8.88379 33.5156 7.7666C32.3984 6.64941 31.0771 5.75781 29.5518 5.0918C28.0264 4.42578 26.4258 4.10352 24.75 4.125C23.0312 4.125 21.4307 4.44727 19.9482 5.0918C18.4658 5.73633 17.1553 6.61719 16.0166 7.73438C14.8779 8.85156 13.9863 10.1729 13.3418 11.6982C12.6973 13.2236 12.375 14.8242 12.375 16.5Z" fill="black"/>
<path d="M53.4587 46.2057H43.2087V56.4557H39.792V46.2057H29.542V42.7891H39.792V32.5391H43.2087V42.7891H53.4587V46.2057Z" fill="black"/>
</svg>
