<svg width="66" height="66" viewBox="0 0 66 66" fill="none" xmlns="http://www.w3.org/2000/svg">
<g clip-path="url(#clip0_736_14)">
<path d="M55.6875 37.125C56.2461 37.125 56.7295 37.3291 57.1377 37.7373C57.5459 38.1455 57.75 38.6289 57.75 39.1875C57.75 39.7461 57.5459 40.2295 57.1377 40.6377C56.7295 41.0459 56.2461 41.25 55.6875 41.25C55.1289 41.25 54.6455 41.0459 54.2373 40.6377C53.8291 40.2295 53.625 39.7461 53.625 39.1875C53.625 38.6289 53.8291 38.1455 54.2373 37.7373C54.6455 37.3291 55.1289 37.125 55.6875 37.125ZM36.2549 36.5127C34.5576 35.3525 32.7314 34.4824 30.7764 33.9023C28.8213 33.3223 26.8125 33.0215 24.75 33C22.8594 33 21.0332 33.2471 19.2715 33.7412C17.5098 34.2354 15.8662 34.9229 14.3408 35.8037C12.8154 36.6846 11.4297 37.7588 10.1836 39.0264C8.9375 40.2939 7.86328 41.6904 6.96094 43.2158C6.05859 44.7412 5.36035 46.3848 4.86621 48.1465C4.37207 49.9082 4.125 51.7344 4.125 53.625H0C0 51.1113 0.375977 48.6514 1.12793 46.2451C1.87988 43.8389 2.96484 41.6152 4.38281 39.5742C5.80078 37.5332 7.4873 35.7178 9.44238 34.1279C11.3975 32.5381 13.5781 31.3242 15.9844 30.4863C14.7813 29.7129 13.707 28.8213 12.7617 27.8115C11.8164 26.8018 11 25.6953 10.3125 24.4922C9.625 23.2891 9.12012 22.0215 8.79785 20.6895C8.47559 19.3574 8.29297 17.9609 8.25 16.5C8.25 14.2227 8.67969 12.085 9.53906 10.0869C10.3984 8.08887 11.5693 6.33789 13.0518 4.83398C14.5342 3.33008 16.2852 2.14844 18.3047 1.28906C20.3242 0.429688 22.4727 0 24.75 0C27.0273 0 29.165 0.429688 31.1631 1.28906C33.1611 2.14844 34.9121 3.31934 36.416 4.80176C37.9199 6.28418 39.1016 8.03516 39.9609 10.0547C40.8203 12.0742 41.25 14.2227 41.25 16.5C41.25 17.9395 41.0781 19.3252 40.7344 20.6572C40.3906 21.9893 39.875 23.2676 39.1875 24.4922C38.5 25.7168 37.6943 26.8232 36.7705 27.8115C35.8467 28.7998 34.7617 29.6914 33.5156 30.4863C35.2559 31.1094 36.9316 31.9688 38.543 33.0645L36.2549 36.5127ZM12.375 16.5C12.375 18.2187 12.6973 19.8193 13.3418 21.3018C13.9863 22.7842 14.8672 24.0947 15.9844 25.2334C17.1016 26.3721 18.4121 27.2637 19.916 27.9082C21.4199 28.5527 23.0313 28.875 24.75 28.875C26.4473 28.875 28.0479 28.5527 29.5518 27.9082C31.0557 27.2637 32.3662 26.3828 33.4834 25.2656C34.6006 24.1484 35.4922 22.8379 36.1582 21.334C36.8242 19.8301 37.1465 18.2187 37.125 16.5C37.125 14.8027 36.8027 13.2021 36.1582 11.6982C35.5137 10.1943 34.6328 8.88379 33.5156 7.7666C32.3984 6.64941 31.0771 5.75781 29.5518 5.0918C28.0264 4.42578 26.4258 4.10352 24.75 4.125C23.0313 4.125 21.4307 4.44727 19.9482 5.0918C18.4658 5.73633 17.1553 6.61719 16.0166 7.73438C14.8779 8.85156 13.9863 10.1729 13.3418 11.6982C12.6973 13.2236 12.375 14.8242 12.375 16.5ZM53.625 28.875C55.3223 28.875 56.9229 29.1973 58.4268 29.8418C59.9307 30.4863 61.2412 31.3672 62.3584 32.4844C63.4756 33.6016 64.3672 34.9229 65.0332 36.4482C65.6992 37.9736 66.0215 39.5742 66 41.25C66 42.9687 65.6777 44.5693 65.0332 46.0518C64.3887 47.5342 63.5078 48.8447 62.3906 49.9834C61.2734 51.1221 59.9521 52.0137 58.4268 52.6582C56.9014 53.3027 55.3008 53.625 53.625 53.625C52.2285 53.625 50.8535 53.3779 49.5 52.8838V57.75H45.375V61.875H41.25V66H28.875V56.9121L41.6045 44.1504C41.3682 43.1621 41.25 42.1953 41.25 41.25C41.25 39.5527 41.5723 37.9521 42.2168 36.4482C42.8613 34.9443 43.7422 33.6338 44.8594 32.5166C45.9766 31.3994 47.2871 30.5078 48.791 29.8418C50.2949 29.1758 51.9063 28.8535 53.625 28.875ZM53.625 49.5C54.7637 49.5 55.8271 49.2852 56.8154 48.8555C57.8037 48.4258 58.6846 47.835 59.458 47.083C60.2314 46.3311 60.8223 45.4609 61.2305 44.4727C61.6387 43.4844 61.8535 42.4102 61.875 41.25C61.875 40.1113 61.6602 39.0479 61.2305 38.0596C60.8008 37.0713 60.21 36.1904 59.458 35.417C58.7061 34.6436 57.8359 34.0527 56.8477 33.6445C55.8594 33.2363 54.7852 33.0215 53.625 33C52.4863 33 51.4229 33.2148 50.4346 33.6445C49.4463 34.0742 48.5654 34.665 47.792 35.417C47.0186 36.1689 46.4277 37.0391 46.0195 38.0273C45.6113 39.0156 45.3965 40.0898 45.375 41.25C45.375 42.002 45.4717 42.6895 45.665 43.3125C45.8584 43.9355 46.084 44.5908 46.3418 45.2783L33 58.5879V61.875H37.125V57.75H41.25V53.625H45.375V50.6924L48.3721 47.7275C49.2314 48.2217 50.0586 48.6406 50.8535 48.9844C51.6484 49.3281 52.5723 49.5 53.625 49.5Z" fill="black"/>
</g>
<defs>
<clipPath id="clip0_736_14">
<rect width="66" height="66" fill="white"/>
</clipPath>
</defs>
</svg>
